<svg xmlns="http://www.w3.org/2000/svg" xmlns:xlink="http://www.w3.org/1999/xlink" viewBox="0 0 102.02 105.48"><defs><style>.cls-1{fill:#77cdd7;}.cls-2{opacity:0.69;fill:url(#linear-gradient);}.cls-3,.cls-4{fill:#252d2d;}.cls-3{opacity:0.3;}.cls-4{opacity:0.49;}.cls-5{opacity:0.7;}.cls-6,.cls-7{opacity:0.37;}.cls-6{fill:url(#linear-gradient-2);}.cls-7{fill:url(#linear-gradient-3);}.cls-8,.cls-9{fill:#fff;stroke-miterlimit:10;opacity:0.11;}.cls-8{stroke:#f1f2f2;stroke-width:0.75px;}.cls-9{stroke:#fff;}.cls-10,.cls-11{opacity:0.36;}</style><linearGradient id="linear-gradient" x1="8.53" y1="58.18" x2="40.78" y2="58.18" gradientUnits="userSpaceOnUse"><stop offset="0.07" stop-color="#7b7b7b"/><stop offset="0.11" stop-color="#8b8b8b"/><stop offset="0.23" stop-color="#afafaf"/><stop offset="0.35" stop-color="#ccc"/><stop offset="0.48" stop-color="#e2e2e2"/><stop offset="0.63" stop-color="#f3f3f3"/><stop offset="0.79" stop-color="#fcfcfc"/><stop offset="1" stop-color="#fff"/></linearGradient><linearGradient id="linear-gradient-2" x1="-41.11" y1="1.6" x2="48.32" y2="91.04" gradientUnits="userSpaceOnUse"><stop offset="0.42" stop-color="#fff"/><stop offset="0.56" stop-color="#fcfcfc"/><stop offset="0.63" stop-color="#f4f4f4"/><stop offset="0.7" stop-color="#e6e6e6"/><stop offset="0.76" stop-color="#d2d2d2"/><stop offset="0.81" stop-color="#b8b8b8"/><stop offset="0.86" stop-color="#979797"/><stop offset="0.9" stop-color="#717171"/><stop offset="0.95" stop-color="#454545"/><stop offset="0.99" stop-color="#141414"/><stop offset="1"/></linearGradient><linearGradient id="linear-gradient-3" x1="49.78" y1="49.75" x2="57.84" y2="57.81" xlink:href="#linear-gradient-2"/></defs><g id="Layer_1" data-name="Layer 1"><path class="cls-1" d="M40.61,40.53l.17.84h0a.84.84,0,0,1-.17-.5Z"/><path class="cls-1" d="M54.73,26.19l.11.09-.25-.18Z"/><path class="cls-1" d="M56.83,36.9l.19-.34-.09.19Z"/><path class="cls-1" d="M56.93,28.65a6.57,6.57,0,0,1,.5,1.27A7.42,7.42,0,0,0,56,27.37,6.17,6.17,0,0,1,56.93,28.65Z"/><path class="cls-1" d="M57,36.56a8.83,8.83,0,0,0,.35-.9A4.93,4.93,0,0,1,57,36.56Z"/><path class="cls-1" d="M57.62,33.45V34a5.1,5.1,0,0,1-.07.87A11.45,11.45,0,0,0,57.62,33.45Z"/><path class="cls-1" d="M57.62,53.92v3.74c0,1-1.52,1.42-2.39.73L53.47,57l-1.18-1-.55-.44-.46-.37c-.68-.55-.4-1.41.46-1.69a1.55,1.55,0,0,1,.31-.07l.29,0,1.19-.17,1.2-.19,1-.15.22,0a1.71,1.71,0,0,1,1,.12.94.94,0,0,1,.22.12l.1.06A.94.94,0,0,1,57.62,53.92Z"/><path class="cls-1" d="M57.19,78.34a1,1,0,0,1,.43.77V86.5a7,7,0,0,1-2.1,4.88,12.25,12.25,0,0,1-8.81,3.4H19.45a12.69,12.69,0,0,1-7.81-2.51.21.21,0,0,1-.1-.07,9,9,0,0,1-.91-.82,7,7,0,0,1-2.1-4.89V35.55a28.07,28.07,0,0,1,3.16-12.86,34.54,34.54,0,0,1,6.76-9A48.71,48.71,0,0,1,39.7,2,58.22,58.22,0,0,1,49.13.32L50.54.19,51.74.1l.6,0,1.19,0c.4,0,.8,0,1.2,0h.65l.35,0a2.59,2.59,0,0,1,1.2.45l0,0a1.5,1.5,0,0,1,.65,1.2s0,.52,0,1.28c0,1,0,2.39,0,3.61s0,2.26.06,2.58A2.31,2.31,0,0,1,56.93,11a3.67,3.67,0,0,1-1.2.71,4.05,4.05,0,0,1-1,.23,3.76,3.76,0,0,1-1.06,0l-.14,0-1.19-.12-.6-.06-1.2-.11-1.2-.09-1.2-.09-1.59-.1-1.2-.08L44,11.19c-.4,0-.79,0-1.19-.06l-.69,0c-5.62-.27-10.61-.4-10.61-.4H31c-3.46.13-6.42,1.71-7.82,4a5.65,5.65,0,0,0-.86,2.54c0,.14,0,.28,0,.42V41.27a.24.24,0,0,1,0,.14.75.75,0,0,1-.25.47.36.36,0,0,1-.11.1,1.76,1.76,0,0,1-1.05.34c-3.16,0-4.86,2.86-2.79,4.68l0,0,.36.32.33.28.59.51.8.7.22.19,1,.84.57.5a.86.86,0,0,1,.23.28.88.88,0,0,1,.12.41V81.58c0,.15,0,.29,0,.44a1.18,1.18,0,0,0,0,.27,3,3,0,0,0,.06.42h0a.61.61,0,0,0,0,.14,4.9,4.9,0,0,0,.13.55h0a2.1,2.1,0,0,0,.06.24h0l0,0h0a.19.19,0,0,0,0,.08,1.13,1.13,0,0,0,.08.22,4.65,4.65,0,0,0,.2.52,7.87,7.87,0,0,0,.63,1.18s0,0,0,0c.15.22.31.45.48.66s.25.3.39.45c0,0,0,0,0,0l.11.14a3.57,3.57,0,0,0,.28.27.6.6,0,0,0,.08.08h0l.38.36c.29.24.59.48.9.71h0a5.11,5.11,0,0,0,.48.33,11.73,11.73,0,0,0,1,.6l.55.27.56.24a15.67,15.67,0,0,0,1.79.6,14.89,14.89,0,0,0,2.63.44c.46,0,.92.06,1.39.06a6.9,6.9,0,0,0,4.18-1.32,4,4,0,0,0,1.74-3.17v-18a.83.83,0,0,1,.12-.44,1.6,1.6,0,0,1,.31-.33,2.53,2.53,0,0,1,.44-.21,1.28,1.28,0,0,1,.34-.06l.19,0h0a1.27,1.27,0,0,1,.28,0,1.36,1.36,0,0,1,.47.15l.23.14,1.12.88.1.08c1.64,1.27,3.33,2.57,5.06,3.86l1.59,1.21Q53.12,75.4,55.28,77c.37.27.71.53,1.07.78l.16.12,0,0Z"/></g><g id="Layer_3" data-name="Layer 3"><path class="cls-2" d="M40.78,41.37h0q-.81,1.3-1.62,2.67c-.43.7-.85,1.41-1.29,2.14-3,5-6.1,10.31-9.2,15.7-2,3.52-4.05,7.06-6,10.5h0c-.12.2-.23.4-.34.6-1.62,2.85-3.19,5.63-4.69,8.29-2.23,4-4.29,7.66-6.09,10.91a9,9,0,0,1-.91-.82,7,7,0,0,1-2.1-4.89V63.61l.31-.38L20.42,49,40.7,24.16a.82.82,0,0,0-.09.38v16Z"/><path class="cls-3" d="M54.94,39a13.31,13.31,0,0,0-1.28,1.67C51,44.55,45.13,54.2,38.33,65.64c-4.16,7-8.66,14.67-13,22.08-.16-.15-.31-.29-.46-.45a3.57,3.57,0,0,1-.28-.27c-.18-.2-.35-.4-.52-.61s-.33-.44-.48-.66c0,0,0,0,0,0a7.87,7.87,0,0,1-.63-1.18,4.65,4.65,0,0,1-.2-.52,1.13,1.13,0,0,1-.08-.22.31.31,0,0,0,0-.08h0l0,0a2.1,2.1,0,0,1-.06-.24s0,0,0,0a4.9,4.9,0,0,1-.13-.55,5.54,5.54,0,0,1-.07-.57,1.18,1.18,0,0,1,0-.27c0-.15,0-.29,0-.44V73c.11-.2.22-.4.34-.6h0c2-3.44,4-7,6-10.5,3.1-5.39,6.24-10.75,9.2-15.7.44-.73.86-1.44,1.29-2.14q.81-1.36,1.62-2.67h0a.81.81,0,0,0,.18.19,1.52,1.52,0,0,0,1.17.36h0l.6,0,1.19-.1,1.4-.14,1.2-.13,1.59-.19,1.2-.17.79-.11.41-.07a11.69,11.69,0,0,0,1.2-.3l.6-.2a7,7,0,0,0,1-.46l.15-.06a10.17,10.17,0,0,0,1.2-.75Z"/><path class="cls-4" d="M25.33,87.72l-4.12,7.06H19.45a12.69,12.69,0,0,1-7.81-2.51.21.21,0,0,1-.1-.07c3-5.44,6.76-12.13,10.78-19.2v8.58A8.18,8.18,0,0,0,25.33,87.72Z"/><path class="cls-1" d="M57.62,31.38v2.07a11.45,11.45,0,0,1-.07,1.45,4.36,4.36,0,0,1-.11.52h0c0,.08,0,.15-.07.23a8.83,8.83,0,0,1-.35.9l-.19.34a2.4,2.4,0,0,1-.16.27,3.37,3.37,0,0,1-.21.31l-.22.3a6.62,6.62,0,0,1-.51.56A6.4,6.4,0,0,1,55,39l-.06,0-.21.16a10.17,10.17,0,0,1-1.2.75l-.15.06a7,7,0,0,1-1,.46l-.6.2a11.69,11.69,0,0,1-1.2.3l-.41.07-.79.11-1.2.17-1.59.19-1.2.13-1.4.14-1.19.1-.6,0h0A1.52,1.52,0,0,1,41,41.57a.81.81,0,0,1-.18-.19h0l-.17-.84v-16a.82.82,0,0,1,.09-.38l.26-.32a1.61,1.61,0,0,1,1.17-.36h0l.6.05.49,0,.7.05,1.4.14,1.2.13,1.59.19,1.2.16.83.13.37.06c.41.08.81.18,1.2.29l.4.13.2.07.61.25.58.28c.21.1.42.22.62.34l.42.29s0,0,0,0l.25.18a1,1,0,0,0,.18.15l.1.07a8.13,8.13,0,0,1,.68.64,2.4,2.4,0,0,1,.21.23,7.42,7.42,0,0,1,1.42,2.55.06.06,0,0,0,0,0,4.41,4.41,0,0,1,.15.87c0,.11,0,.22,0,.35Z"/><path class="cls-4" d="M40.78,41.38h0Z"/><path class="cls-4" d="M53.53,25.46a5.76,5.76,0,0,1,.62.34C54,25.68,53.74,25.56,53.53,25.46Z"/><path class="cls-4" d="M55.73,38.34a6.62,6.62,0,0,0,.51-.56,7.1,7.1,0,0,1-1.12,1.15s-.06,0-.12.06A6.4,6.4,0,0,0,55.73,38.34Z"/><path class="cls-4" d="M57.62,33V31.38A13.53,13.53,0,0,1,57.62,33Z"/></g><g id="Layer_2" data-name="Layer 2"><path class="cls-5" d="M80.54,32.71a19.28,19.28,0,0,1-.26,3,21,21,0,0,1-.6,2.59c-.12.4-.25.8-.4,1.2s-.37,1-.6,1.44a.61.61,0,0,1-.09.18,15,15,0,0,1-13.17,9A11.23,11.23,0,0,1,63,50l-.3-.05-.59-.16-.4-.13-.4-.17c-.21-.11-.4-.21-.6-.34a3.6,3.6,0,0,1-.4-.28,4.77,4.77,0,0,1-.6-.51l-.4-.42a9.18,9.18,0,0,1-1-1.43c-.17-.31-.35-.64-.51-1a8.64,8.64,0,0,1,.51-5,4.71,4.71,0,0,1,1-1.42,3.4,3.4,0,0,1,.4-.34,4.43,4.43,0,0,1,.6-.39l.4-.18.06,0c.18-.08.36-.18.54-.27l.4-.22.4-.22.59-.37a4.62,4.62,0,0,0,.4-.27c.21-.14.41-.29.6-.44a4.31,4.31,0,0,0,.4-.32c.24-.2.46-.4.66-.59l.34-.37a4.61,4.61,0,0,0,1-1.7,2.88,2.88,0,0,0,.1-.7,3,3,0,0,0-.1-.7,4.65,4.65,0,0,0-1-1.75,8.45,8.45,0,0,0-1-1,4.39,4.39,0,0,0-.4-.33,6.42,6.42,0,0,0-.6-.42,3.51,3.51,0,0,0-.4-.27c-.19-.13-.39-.25-.59-.37l-.3-.17-.1-.06a3,3,0,0,1-.4-.24,7.1,7.1,0,0,1-.6-.43,4.47,4.47,0,0,1-.4-.34,3.19,3.19,0,0,1-.42-.4,1.45,1.45,0,0,1-.18-.17c-.14-.15-.27-.31-.4-.47a8.16,8.16,0,0,1-1-1.65,7.71,7.71,0,0,1-.7-3.2,2.62,2.62,0,0,1,.1-.73,9.27,9.27,0,0,1,.6-1.46,6.83,6.83,0,0,1,1-1.46l.4-.4a5.39,5.39,0,0,1,.6-.47,2.65,2.65,0,0,1,.4-.24,4.2,4.2,0,0,1,.6-.3,2.37,2.37,0,0,1,.4-.15,2.64,2.64,0,0,1,.4-.12,3.86,3.86,0,0,1,.59-.12,1.9,1.9,0,0,1,.4-.05,3.83,3.83,0,0,1,.6,0h.4c.33,0,.66,0,1,.07l.38.06.62.11c.41.07.81.16,1.19.26l.3.08.7.2c.34.1.68.22,1,.34s.67.25,1,.4l.8.37c.2.1.4.2.6.32s.4.22.59.34a3.94,3.94,0,0,1,.4.26,6.25,6.25,0,0,1,.6.4c.2.14.4.28.6.44s.55.44.8.66.68.63,1,1,.4.44.6.66.4.49.59.75.55.75.8,1.14a15.05,15.05,0,0,1,1,1.79,14.8,14.8,0,0,1,.6,1.36c.15.38.28.76.4,1.14a19.41,19.41,0,0,1,.6,2.48A17.56,17.56,0,0,1,80.54,32.71Z"/><path class="cls-5" d="M84.64,85.72c-2.3,1.88-17.6-4-24.07-8.2a10.89,10.89,0,0,1-3.35-3.3q-.16-.25-.3-.51a7.64,7.64,0,0,1-1-3.66,4.39,4.39,0,0,1,2.17-3.64,8.62,8.62,0,0,1,4.68-1.33,8.24,8.24,0,0,1,4.61,1.34c.22.15.43.29.63.44a53.23,53.23,0,0,1,9,7.86C78.19,75.92,86.19,84.47,84.64,85.72Z"/></g><g id="Layer_4" data-name="Layer 4"><path class="cls-6" d="M55.28,77q-2.16-1.56-4.41-3.23l-1.59-1.21c-1.73-1.29-3.42-2.59-5.06-3.86l-.1-.08L43,67.7l-.23-.14a1.36,1.36,0,0,0-.47-.15,1.27,1.27,0,0,0-.28,0h0l-.19,0a1.28,1.28,0,0,0-.34.06,2.53,2.53,0,0,0-.44.21,1.6,1.6,0,0,0-.31.33.83.83,0,0,0-.12.44v18a4,4,0,0,1-1.74,3.17A6.9,6.9,0,0,1,34.69,91c-.47,0-.93,0-1.39-.06a14.89,14.89,0,0,1-2.63-.44,15.67,15.67,0,0,1-1.79-.6l-.56-.24-.55-.27a11.73,11.73,0,0,1-1-.6,5.11,5.11,0,0,1-.48-.33h0c-.31-.23-.61-.47-.9-.71l0,0-.07-.06a3.13,3.13,0,0,1-1.18-1.34,3.79,3.79,0,0,1-.2-.34,3,3,0,0,1-.35-.6,13,13,0,0,1-.85-1.82,5.37,5.37,0,0,0-.32-.84l-.1-.15H22.2a2.49,2.49,0,0,1,.3.73,11.83,11.83,0,0,0,1.1,3.62c.49.85,1.14,1.66,1.73,2.48,4.76,3.7,9.93,5.57,15,5,7.64-.91,13.33-7.29,16.06-16.6C56,77.49,55.65,77.23,55.28,77Z"/><path class="cls-7" d="M53.53,53.27l1.2-.19,1-.15.22,0a1.71,1.71,0,0,1,1,.12.94.94,0,0,1,.22.12c.18,1,.34,2,.47,3v1.5c0,1-1.52,1.42-2.39.73L53.47,57l-1.18-1-.55-.44-.46-.37c-.68-.55-.4-1.41.46-1.69a1.55,1.55,0,0,1,.31-.07l.29,0Z"/></g><g id="Layer_5" data-name="Layer 5"><path class="cls-8" d="M78.83,32.7a14.56,14.56,0,0,1-.09,1.56,13.16,13.16,0,0,1-.22,1.33c0,.2-.09.41-.14.62s-.13.5-.21.74l0,.09c-.77,2.35-2.24,4.42-4.69,4.62a2.45,2.45,0,0,1-.86,0l-.1,0-.22-.07-.14-.08L72,41.35a1.68,1.68,0,0,1-.21-.18L71.63,41l-.21-.26-.14-.22a7.11,7.11,0,0,1-.36-.73c-.06-.16-.12-.34-.18-.52a6.58,6.58,0,0,1,.18-2.57,2.49,2.49,0,0,1,.36-.73l.14-.18.21-.2.15-.09,0,0,.19-.14.14-.11.14-.12.22-.18.14-.14.21-.23.14-.16.24-.31.12-.19a2.49,2.49,0,0,0,.35-.88,1.45,1.45,0,0,0,0-.35,1.55,1.55,0,0,0,0-.37,2.74,2.74,0,0,0-.35-.9,3.9,3.9,0,0,0-.36-.5,2.09,2.09,0,0,0-.14-.17l-.21-.22-.14-.13-.22-.19-.1-.09,0,0A.86.86,0,0,1,72,30a2.18,2.18,0,0,1-.21-.22l-.15-.17-.15-.21-.06-.09c0-.08-.1-.16-.14-.24a5.43,5.43,0,0,1-.36-.85,5.53,5.53,0,0,1-.24-1.65,1.67,1.67,0,0,1,0-.38,6.73,6.73,0,0,1,.21-.75,3.73,3.73,0,0,1,.36-.75,1.43,1.43,0,0,1,.14-.2l.21-.25.15-.12a1,1,0,0,1,.21-.15.39.39,0,0,1,.14-.08l.14-.06.22-.07.14,0a.76.76,0,0,1,.21,0H73a2.2,2.2,0,0,1,.36,0l.14,0,.21.06a3.09,3.09,0,0,1,.43.14l.1,0,.26.1a2.31,2.31,0,0,1,.35.18l.36.2.28.19.21.16.22.18.14.13.21.21.21.23c.1.11.2.22.29.34a5.48,5.48,0,0,1,.35.49l.22.34.21.39c.1.19.19.38.28.58s.25.62.36.93.15.46.21.7.1.39.14.59a11.65,11.65,0,0,1,.22,1.27A13.27,13.27,0,0,1,78.83,32.7Z"/><path class="cls-9" d="M81.28,83.74c-1,.8-7.49-1.7-10.24-3.49a4.81,4.81,0,0,1-1.43-1.41l-.12-.21a3.22,3.22,0,0,1-.41-1.56A1.86,1.86,0,0,1,70,75.52,3.66,3.66,0,0,1,72,75a3.45,3.45,0,0,1,2,.57l.26.18A22.15,22.15,0,0,1,78,79.06C78.54,79.57,81.94,83.2,81.28,83.74Z"/></g><g id="Layer_6" data-name="Layer 6"><path class="cls-10" d="M65.38,35.11c-.1.12-.22.25-.34.37s-.41.39-.65.59-.26.22-.4.32-.39.3-.6.44l-.4.27-.6.37-.4.22c-.12.08-.27.15-.4.22,9.53-2.63,6.67-9-.48-10.83a5.92,5.92,0,0,0,.48.35c.13.08.26.17.4.24l.11.06.29.17c.21.12.41.24.6.37l.4.27A6.42,6.42,0,0,1,64,29c.14.11.27.21.4.33a7.62,7.62,0,0,1,1,1,4.52,4.52,0,0,1,1,1.75,2.52,2.52,0,0,1,.1.7,2.47,2.47,0,0,1-.1.7A4.61,4.61,0,0,1,65.38,35.11Z"/><g class="cls-11"><path class="cls-5" d="M66.07,65.71a8.52,8.52,0,0,0-3.26-.63,8.62,8.62,0,0,0-4.68,1.33A4.39,4.39,0,0,0,56,70.05a7.64,7.64,0,0,0,1,3.66q.13.26.3.51a.94.94,0,0,0,.09.12C54.49,68.41,60.16,65.86,66.07,65.71Z"/><path class="cls-5" d="M74.17,71.84c.91.89,1.82,1.82,2.85,2.88"/></g></g></svg>